<svg xmlns="http://www.w3.org/2000/svg" width="512" height="512" viewBox="0 0 512 512">
  <rect width="512" height="512" rx="64" fill="#171717"/>
  <g transform="translate(151.0547,354.8511) scale(0.347042,-0.347042)">
    <path d="M306.198974609375 -162Q229.3997802734375 -162 177.70001220703125 -143.0Q126.000244140625 -124 95.6002197265625 -89.89996337890625Q65.2001953125 -55.7999267578125 53.000244140625 -11.599853515625L206.99755859375 -0.800048828125Q215.397705078125 -27.00048828125 237.498046875 -41.9007568359375Q259.598388671875 -56.801025390625 306.198974609375 -56.801025390625Q359.5997314453125 -56.801025390625 388.20013427734375 -31.40087890625Q416.800537109375 -6.000732421875 416.800537109375 49.599365234375V107.4005126953125Q397.800537109375 70.2003173828125 355.800537109375 47.6002197265625Q313.800537109375 25.0001220703125 261.800537109375 25.0001220703125Q196.00048828125 25.0001220703125 145.00042724609375 57.400146484375Q94.0003662109375 89.8001708984375 65.40032958984375 148.400146484375Q36.80029296875 207.0001220703125 36.80029296875 285.5999755859375Q36.80029296875 362.7999267578125 65.2003173828125 421.79986572265625Q93.600341796875 480.7998046875 144.20037841796875 514.3997802734375Q194.8004150390625 547.999755859375 260.200439453125 547.999755859375Q319.2003173828125 547.999755859375 359.80047607421875 521.999755859375Q400.400634765625 495.999755859375 420.800537109375 453.19970703125V535.999755859375H567.997802734375V52.79931640625Q567.997802734375 -18.80029296875 534.8980102539062 -66.60015869140625Q501.7982177734375 -114.4000244140625 442.89849853515625 -138.20001220703125Q383.998779296875 -162 306.198974609375 -162ZM304.7989501953125 135.598876953125Q356.599609375 135.598876953125 387.10003662109375 175.59918212890625Q417.6004638671875 215.5994873046875 418.00048828125 286.7999267578125Q418.4005126953125 334.000244140625 404.7003173828125 367.80047607421875Q391.0001220703125 401.6007080078125 365.499755859375 419.80084228515625Q339.9993896484375 438.0009765625 304.7989501953125 438.0009765625Q250.998291015625 438.0009765625 221.19793701171875 396.80072021484375Q191.3975830078125 355.6004638671875 191.3975830078125 286.7999267578125Q191.3975830078125 217.3994140625 222.19793701171875 176.4991455078125Q252.998291015625 135.598876953125 304.7989501953125 135.598876953125Z" fill="#fafafa"/>
  </g>
</svg>