<svg xmlns="http://www.w3.org/2000/svg" width="960" height="320" viewBox="0 0 960 320">
  <rect width="960" height="320" rx="40" fill="#171717"/>
  <g transform="translate(322.38,214.62) scale(0.153846,-0.153846)" fill="#fafafa">
    <g transform="translate(0,0)"><path d="M306.198974609375 -162Q229.3997802734375 -162 177.70001220703125 -143.0Q126.000244140625 -124 95.6002197265625 -89.89996337890625Q65.2001953125 -55.7999267578125 53.000244140625 -11.599853515625L206.99755859375 -0.800048828125Q215.397705078125 -27.00048828125 237.498046875 -41.9007568359375Q259.598388671875 -56.801025390625 306.198974609375 -56.801025390625Q359.5997314453125 -56.801025390625 388.20013427734375 -31.40087890625Q416.800537109375 -6.000732421875 416.800537109375 49.599365234375V107.4005126953125Q397.800537109375 70.2003173828125 355.800537109375 47.6002197265625Q313.800537109375 25.0001220703125 261.800537109375 25.0001220703125Q196.00048828125 25.0001220703125 145.00042724609375 57.400146484375Q94.0003662109375 89.8001708984375 65.40032958984375 148.400146484375Q36.80029296875 207.0001220703125 36.80029296875 285.5999755859375Q36.80029296875 362.7999267578125 65.2003173828125 421.79986572265625Q93.600341796875 480.7998046875 144.20037841796875 514.3997802734375Q194.8004150390625 547.999755859375 260.200439453125 547.999755859375Q319.2003173828125 547.999755859375 359.80047607421875 521.999755859375Q400.400634765625 495.999755859375 420.800537109375 453.19970703125V535.999755859375H567.997802734375V52.79931640625Q567.997802734375 -18.80029296875 534.8980102539062 -66.60015869140625Q501.7982177734375 -114.4000244140625 442.89849853515625 -138.20001220703125Q383.998779296875 -162 306.198974609375 -162ZM304.7989501953125 135.598876953125Q356.599609375 135.598876953125 387.10003662109375 175.59918212890625Q417.6004638671875 215.5994873046875 418.00048828125 286.7999267578125Q418.4005126953125 334.000244140625 404.7003173828125 367.80047607421875Q391.0001220703125 401.6007080078125 365.499755859375 419.80084228515625Q339.9993896484375 438.0009765625 304.7989501953125 438.0009765625Q250.998291015625 438.0009765625 221.19793701171875 396.80072021484375Q191.3975830078125 355.6004638671875 191.3975830078125 286.7999267578125Q191.3975830078125 217.3994140625 222.19793701171875 176.4991455078125Q252.998291015625 135.598876953125 304.7989501953125 135.598876953125Z"/></g>
    <g transform="translate(584,0)"><path d="M205.59912109375 0Q140.39990234375 0 103.000244140625 32.9996337890625Q65.6005859375 65.999267578125 65.6005859375 139.598388671875V710H215.597900390625V155.5980224609375Q215.597900390625 132.3983154296875 226.79779052734375 122.098388671875Q237.9976806640625 111.7984619140625 258.7974853515625 111.7984619140625H294.597900390625V0Z"/></g>
    <g transform="translate(847,0)"><path d="M309.1990966796875 -12Q227.199462890625 -12 165.89971923828125 22.5999755859375Q104.5999755859375 57.199951171875 70.70013427734375 120.2999267578125Q36.80029296875 183.39990234375 36.80029296875 267.9998779296875Q36.80029296875 352.9998779296875 70.70013427734375 415.599853515625Q104.5999755859375 478.1998291015625 165.89971923828125 513.0997924804688Q227.199462890625 547.999755859375 309.1990966796875 547.999755859375Q391.19873046875 547.999755859375 452.2984619140625 513.0997924804688Q513.398193359375 478.1998291015625 547.2980346679688 415.599853515625Q581.1978759765625 352.9998779296875 581.1978759765625 267.9998779296875Q581.1978759765625 183.39990234375 547.2980346679688 120.2999267578125Q513.398193359375 57.199951171875 452.2984619140625 22.5999755859375Q391.19873046875 -12 309.1990966796875 -12ZM309.1990966796875 103.3985595703125Q365.3997802734375 103.3985595703125 396.00018310546875 146.59893798828125Q426.6005859375 189.79931640625 426.6005859375 267.9998779296875Q426.6005859375 345.6004638671875 396.00018310546875 389.100830078125Q365.3997802734375 432.6011962890625 309.1990966796875 432.6011962890625Q252.9984130859375 432.6011962890625 222.197998046875 389.100830078125Q191.3975830078125 345.6004638671875 191.3975830078125 267.9998779296875Q191.3975830078125 189.79931640625 222.197998046875 146.59893798828125Q252.9984130859375 103.3985595703125 309.1990966796875 103.3985595703125Z"/></g>
    <g transform="translate(1415,0)"><path d="M65.6005859375 -150V535.999755859375H210.1978759765625L213.3978271484375 422.5997314453125L200.7978515625 427.999755859375Q220.7978515625 486.3997802734375 265.79791259765625 517.1997680664062Q310.7979736328125 547.999755859375 371.197998046875 547.999755859375Q445.9981689453125 547.999755859375 496.19818115234375 510.7996826171875Q546.398193359375 473.599609375 571.7981567382812 410.29962158203125Q597.1981201171875 346.9996337890625 597.1981201171875 267.9998779296875Q597.1981201171875 189.60009765625 571.4981689453125 126.0001220703125Q545.7982177734375 62.400146484375 495.2982177734375 25.2000732421875Q444.7982177734375 -12 369.998046875 -12Q330.7979736328125 -12 296.79791259765625 2.29998779296875Q262.7978515625 16.5999755859375 238.2978515625 42.7999267578125Q213.7978515625 68.9998779296875 202.9979248046875 104.7998046875L215.597900390625 112.800048828125V-150ZM328.9993896484375 103.3985595703125Q381.800048828125 103.3985595703125 412.200439453125 147.29888916015625Q442.600830078125 191.19921875 442.600830078125 267.9998779296875Q442.600830078125 344.800537109375 412.200439453125 388.70086669921875Q381.800048828125 432.6011962890625 328.9993896484375 432.6011962890625Q293.7989501953125 432.6011962890625 268.39862060546875 414.2010498046875Q242.998291015625 395.8009033203125 229.298095703125 359.0006103515625Q215.597900390625 322.2003173828125 215.597900390625 267.9998779296875Q215.597900390625 213.7994384765625 229.09808349609375 176.9991455078125Q242.5982666015625 140.1988525390625 268.1986083984375 121.7987060546875Q293.7989501953125 103.3985595703125 328.9993896484375 103.3985595703125Z"/></g>
  </g>
</svg>